<svg id="visual" viewBox="0 0 720 240" width="720" height="240" xmlns="http://www.w3.org/2000/svg" xmlns:xlink="http://www.w3.org/1999/xlink" version="1.1"><rect x="0" y="0" width="720" height="240" fill="#272727"></rect><path d="M0 84L90 96L180 124L270 94L360 73L450 93L540 86L630 105L720 45L720 241L630 241L540 241L450 241L360 241L270 241L180 241L90 241L0 241Z" fill="#98bdcd"></path><path d="M0 95L90 132L180 121L270 107L360 128L450 101L540 125L630 121L720 105L720 241L630 241L540 241L450 241L360 241L270 241L180 241L90 241L0 241Z" fill="#79aabf"></path><path d="M0 142L90 140L180 135L270 174L360 184L450 143L540 168L630 167L720 146L720 241L630 241L540 241L450 241L360 241L270 241L180 241L90 241L0 241Z" fill="#5f91a8"></path><path d="M0 199L90 174L180 202L270 204L360 191L450 189L540 194L630 186L720 177L720 241L630 241L540 241L450 241L360 241L270 241L180 241L90 241L0 241Z" fill="#4c7588"></path></svg>